<svg xmlns="http://www.w3.org/2000/svg" viewBox="30 20 640 680">
  <path fill="rgb(1,116,123)" d="M 375.955 442.131 C 444.684 441.366 504.378 451.014 557.51 396.567 C 590.695 361.881 609.083 315.644 608.783 267.64 C 608.172 220.111 589.53 171.904 554.978 138.693 C 501.536 87.3255 452.549 93.7384 384.05 94.2116 C 350.461 94.4437 316.424 94.0009 282.789 94.156 C 263.061 94.247 247.96 96.9698 233.672 111.641 C 225.626 119.886 219.956 130.15 217.258 141.35 C 213.822 155.453 215.935 166.63 215.198 180.975 C 213.386 216.238 220.786 257.46 207.924 290.923 C 205.613 296.934 189.85 309.336 183 307.956 C 181.28 305.992 181.277 305.535 181.297 302.773 C 181.544 266.872 181.762 230.788 181.57 194.898 C 181.339 151.745 178.577 115.517 214.739 84.0294 C 226.862 73.3072 241.571 65.9309 257.414 62.6283 C 282.091 57.4312 335.842 59.9777 362.201 60.1169 C 393.774 60.2837 436.045 57.8856 466.804 60.6775 C 578.363 70.8031 651.512 179.52 641.695 287.101 C 632.972 382.705 565.311 468.161 466.038 476.01 C 455.775 476.697 445.117 476.759 434.785 476.894 C 415.28 477.098 395.774 476.91 376.278 476.333 L 376.359 535.914 C 376.323 578.396 377.556 614.114 344.4 647.569 C 327.65 664.55 304.854 674.203 281.003 674.415 C 254.634 674.413 231.296 663.112 212.833 645.015 C 178.309 611.175 180.5 567.789 181.509 522.912 C 182.123 495.566 180.443 458.318 182.227 431.9 C 187.239 423.561 201.626 409.114 212.015 411.777 C 214.111 413.487 214.462 413.141 214.573 415.394 C 215.25 429.124 214.973 443.705 214.954 457.474 L 214.703 538.009 C 214.601 552.96 213.677 576.579 217.415 590.452 C 221.208 604.308 229.257 616.623 240.426 625.658 C 273.649 652.687 316.097 641.141 334.128 603.228 C 345.818 578.648 343.215 551.403 343.057 524.873 L 342.768 453.164 C 342.726 436.868 342.018 420.858 346.12 404.965 C 350.597 387.665 359.915 372.002 372.983 359.813 C 389.809 344.112 407.318 337.852 429.648 335.235 C 454.154 332.363 482.342 333.977 498.949 312.344 C 510.717 297.013 514.312 279.174 515.098 260.467 C 487.092 256.943 463.294 253.303 445.889 228.439 C 422.21 194.613 407.034 185.73 365.41 186.334 C 374.117 223.537 378.628 281.93 357.826 316.246 C 349.981 329.187 337.087 340.551 321.9 343.733 C 291.167 350.172 269.415 334.479 250.575 312.313 C 214.988 377.451 171.81 435.315 93.2582 445.218 C 74.5128 444.573 69.4758 434.939 73.8924 417.62 C 74.8349 416.376 76.5336 414.366 77.9763 413.901 C 92.4173 409.248 107.827 407.624 121.788 401.237 C 201.094 364.955 225.214 273.402 273.822 208.292 C 295.761 178.906 317.606 157.175 355.509 151.494 C 384.977 148.185 416.977 151.469 440.776 170.565 C 457.962 184.355 462.864 196.988 475.902 212.139 C 502.805 234.595 544.511 213.435 548.594 257.135 C 551.232 285.365 541.913 315.03 524.237 337.11 C 474.531 397.861 380.953 328.243 375.955 442.131 z M 291.873 305.105 C 308.645 313.781 323.215 308.983 331.244 291.737 C 343.792 264.782 339.751 227.522 334.492 199.002 C 334.321 198.148 333.533 196.42 332.861 195.876 C 311.194 210.749 286.978 247.166 280.561 273.014 C 277.542 285.176 282.152 297.262 291.873 305.105 z" />
  <path fill="rgb(15,91,97)" d="M 355.509 151.494 C 384.977 148.185 416.977 151.469 440.776 170.565 C 457.962 184.355 462.864 196.988 475.902 212.139 C 475.259 212.18 474.523 212.228 473.694 212.282 C 462.833 200.115 450.462 178.593 436.747 169.873 C 416.123 156.762 399.122 154.634 375.736 154.329 C 368.767 154.238 361.809 154.576 355.852 151.665 L 355.509 151.494 z" />
  <path fill="rgb(57,70,75)" d="M 93.2582 445.218 C 74.5128 444.573 69.4758 434.939 73.8924 417.62 C 73.9032 421.217 73.5153 424.64 75.5134 427.596 C 79.7578 429.677 82.1536 426.08 85.7907 428.127 C 93.4585 432.441 87.948 438.835 93.2582 445.218 z" />
  <path fill="rgb(246,112,72)" d="M 278.728 524.413 L 279.053 524.016 C 284.602 517.281 289.884 513.301 298.822 512.536 C 304.776 512.026 312.436 514.433 316.66 518.736 C 338.123 540.597 314.848 567.054 299.401 584.034 C 293.362 590.156 286.628 595.551 279.335 600.108 C 261.898 587.793 237.601 565.172 232.484 543.712 C 228.112 525.379 241.111 515.091 257.751 512.308 C 268.457 513.314 272.179 516.306 278.728 524.413 z" />
</svg>
